<svg width="1280" height="1280" viewBox="0 0 1280 1280" fill="none" xmlns="http://www.w3.org/2000/svg">
<path d="M623.75 170.625H661.25L693.125 173.125L719.375 176.875L744.375 181.875L764.375 186.875L786.875 193.75L809.375 201.875L827.5 209.375L842.5 216.25L862.5 226.25L877.5 235L891.25 243.125L906.875 253.75L918.125 261.875L928.75 270L935.625 275.625L941.875 280.625L948.75 286.25L969.375 305.625L980 316.25L984.375 321.25L993.75 331.25L999.375 338.125L1008.12 348.75L1013.12 355L1021.88 366.875L1029.38 377.5L1036.25 388.125L1046.88 406.25L1055 420.625L1066.88 444.375L1073.75 460L1081.25 479.375L1088.75 501.875L1095 524.375L1100 546.875L1104.38 571.25L1106.88 590.625L1108.75 613.125V665.625L1106.88 688.75L1103.75 711.875L1099.38 736.875L1091.25 769.375L1085 790L1075.62 815L1068.75 830.625L1058.75 852.5L1051.25 866.25L1041.25 883.125L1033.75 895.625L1025 908.125L1017.5 918.75L1011.25 926.875L1004.38 935.625L998.75 942.5L991.25 951.25L982.5 960.625L980.625 963.125H979.375L978.125 965.625L962.5 981.25L957.5 985.625L949.375 993.125L942.5 998.75L934.375 1005.62L915.625 1020L901.25 1030L890.625 1036.88L875 1046.25L861.875 1053.75L845 1062.5L824.375 1071.88L806.875 1078.75L788.125 1085.62L769.375 1091.25L755.625 1095L730 1100.62L708.125 1104.38L686.875 1106.88L662.5 1108.75L640.625 1109.38L616.25 1108.75L598.75 1107.5L576.25 1105L553.125 1101.25L531.875 1096.88L510 1091.25L488.125 1084.38L466.25 1076.25L446.875 1068.12L421.25 1055.62L410 1049.38L398.125 1042.5L384.375 1033.75L373.75 1026.88L362.5 1018.75L352.5 1011.25L343.75 1004.38L336.875 998.75L330.625 993.125L325.625 988.75L318.125 981.875L308.75 973.125L301.875 966.25L297.5 961.25L293.125 956.875L288.75 951.875L283.125 945.625L274.375 935L269.375 928.75L261.875 918.75L253.125 906.25L247.5 898.125L238.75 884.375L230 869.375L222.5 855.625L213.75 838.125L205.625 819.375L196.25 795L188.75 771.25L182.5 747.5L176.875 719.375L173.125 693.75L171.25 673.125L170.625 661.875V616.875L172.5 593.125L175.625 568.125L180 543.75L185.625 519.375L193.125 494.375L199.375 476.25L206.25 458.75L215.625 438.125L222.5 423.75L230.625 409.375L238.75 395.625L247.5 381.25L257.5 366.875L263.75 358.75L273.125 346.25L280 337.5H281.25L282.5 335L289.375 327.5L295 320.625L320 295.625L325 291.25L331.25 285.625L338.125 280L346.25 273.125L363.75 260L376.25 251.25L390.625 241.875L405 233.125L420.625 224.375L441.875 213.75L465 203.75L490.625 194.375L515 186.875L544.375 180L568.125 175.625L587.5 173.125L610.625 171.25L623.75 170.625Z" fill="#583FFD"/>
<path d="M417.5 508.125L420 508.75L427.5 516.875L433.75 522.5L439.375 528.75L447.5 536.25L450.625 539.375L455 544.375L460 548.75L470 558.75V560L471.875 560.625L476.25 565.625L482.5 571.25L487.5 576.25L491.875 581.25L498.125 586.875L505.625 594.375V595.625L508.125 596.875V598.125L510 598.75L525.625 614.375V615.625L528.125 616.875L541.25 630V631.25L543.75 632.5L545.625 634.375V635.625L548.125 636.875L578.75 667.5L581.25 670.625L586.25 675L594.375 683.125V684.375L596.25 685L614.375 703.125L616.875 706.25L621.875 710.625L628.75 718.125L635 724.375L638.75 727.5L641.25 726.875L849.375 518.75L854.375 514.375L856.875 511.25L860.625 508.125L863.125 509.375L868.125 516.875L875.625 527.5L901.875 565L910 576.875L920 591.25L928.125 602.5L938.75 618.125L951.875 636.875L952.5 640L949.375 642.5L946.875 645.625H945.625L944.375 648.125H943.125L941.875 650.625L640.625 951.875L636.875 949.375L327.5 640L328.125 636.25L332.5 630.625L342.5 615.625L350.625 604.375L364.375 584.375L373.125 571.875L386.875 551.875L394.375 541.25L404.375 526.875L411.875 516.25L417.5 508.125Z" fill="#FEFFFE"/>
<path d="M638.75 390L641.25 390.625L649.375 397.5L658.125 404.375L664.375 410L671.25 415.625L679.375 422.5L686.25 428.125L694.375 435L701.25 440.625L709.375 447.5L716.25 453.125L726.875 461.875L744.375 476.875L750 481.25V483.125H528.75L530 480.625L538.75 473.75L545.625 467.5L551.25 463.125L559.375 456.25L566.25 450.625L575 443.125L581.875 437.5L590 430.625L596.875 425L605 418.125L611.875 412.5L620.625 405L627.5 399.375L636.25 391.875L638.75 390Z" fill="#FEFFFE"/>
</svg>
